<svg width="1546" height="390" viewBox="0 0 1546 390" fill="none" xmlns="http://www.w3.org/2000/svg">
<path d="M717.68 288.904H650.53C645.412 288.904 641 284.371 641 279.216V108.088C641 103.193 645.566 98.3517 650.663 98.3517H718.45C747.958 98.3517 771.159 106.816 787.93 123.878C804.781 141.025 813.149 164.364 813.149 193.758C813.149 223.152 804.654 246.358 787.67 263.378C771.031 280.397 747.703 288.904 717.68 288.904ZM689.117 144.509V242.751H719.995C733.894 242.751 744.528 238.022 751.902 228.568C759.452 218.938 763.227 207.25 763.227 193.497C763.227 179.92 759.452 168.317 751.902 158.688C744.528 149.234 733.894 144.509 719.995 144.509H689.117ZM987.83 288.904C977.732 288.904 967.639 288.904 957.546 288.904C953.023 288.904 946.312 284.445 944.953 279.381L936.92 254.094H876.449L868.337 279.035C866.553 284.52 860.57 288.904 855.606 288.904C845.471 288.904 835.33 288.904 825.195 288.904C820.316 288.904 817.173 284.206 818.983 279.242C839.795 222.168 860.602 165.098 881.413 108.029C883.197 103.124 889.876 98.3517 894.755 98.3517C903.287 98.3517 911.819 98.3517 920.345 98.3517C925.203 98.3517 931.335 102.922 933.199 108.162C953.442 165.146 973.676 222.13 993.909 279.115C995.703 284.158 992.65 288.904 987.83 288.904ZM888.544 212.325H925.336L907.327 155.852L888.544 212.325ZM1163.05 288.904C1151.1 288.904 1139.16 288.904 1127.21 288.904C1122.3 288.904 1115.02 284.105 1112.46 279.269L1084.11 225.732H1065.32C1065.32 243.539 1065.32 261.345 1065.32 279.152C1065.32 284.163 1060.57 288.904 1055.77 288.904C1046.13 288.904 1036.49 288.904 1026.86 288.904C1022.05 288.904 1017.2 284.094 1017.2 279.253C1017.2 222.157 1017.2 165.061 1017.2 107.965C1017.2 103.161 1022.04 98.3517 1026.77 98.3517H1096.45C1119.27 98.3517 1136.6 104.369 1148.44 116.403C1160.27 128.262 1166.19 143.302 1166.19 161.523C1166.19 173.903 1163.23 185.118 1157.31 195.173C1151.39 205.234 1142.78 212.927 1131.45 218.252C1143.29 238.559 1155.12 258.866 1166.95 279.173C1169.92 284.259 1167.92 288.904 1163.05 288.904ZM1095.94 142.445H1065.32V183.703H1094.14C1103.75 184.219 1110.44 180.867 1114.21 173.643C1117.99 166.423 1117.99 159.246 1114.21 152.112C1110.44 144.978 1104.35 141.759 1095.94 142.445ZM1303.93 98.3517C1316.31 98.3517 1328.69 98.3517 1341.07 98.3517C1345.94 98.3517 1348.14 103.198 1345.56 108.088L1284.04 224.955C1284.04 243.055 1284.04 261.154 1284.04 279.248C1284.04 284.089 1279.26 288.904 1274.4 288.904C1264.91 288.904 1255.41 288.904 1245.92 288.904C1240.86 288.904 1236.18 284.084 1236.18 279.194V224.955C1215.92 186.012 1195.66 147.068 1175.39 108.125C1172.9 103.326 1175.11 98.3517 1179.98 98.3517C1192.39 98.3517 1204.81 98.3517 1217.22 98.3517C1222.11 98.3517 1229.11 103.161 1231.33 108.045L1260.11 171.323C1270.01 150.218 1279.91 129.118 1289.81 108.013C1292.04 103.246 1299.13 98.3517 1303.93 98.3517ZM1517.44 263.638C1498.56 282.546 1474.97 292 1446.67 292C1418.36 292 1394.6 282.546 1375.39 263.638C1356.52 244.725 1347.09 221.433 1347.09 193.758C1347.09 166.083 1356.61 142.701 1375.65 123.622C1394.69 104.539 1418.28 95 1446.42 95C1474.72 95 1498.39 104.539 1517.44 123.622C1536.48 142.701 1546 166.083 1546 193.758C1546 221.263 1536.48 244.555 1517.44 263.638ZM1446.42 244.3C1460.48 244.3 1472.32 239.485 1481.92 229.855C1491.53 220.231 1496.33 208.112 1496.33 193.497C1495.99 178.718 1491.02 166.599 1481.41 157.139C1471.8 147.515 1460.14 142.701 1446.42 142.701C1432.52 142.701 1420.77 147.6 1411.16 157.4C1401.55 167.024 1396.75 179.058 1396.75 193.497C1396.75 208.112 1401.55 220.231 1411.16 229.855C1420.77 239.485 1432.52 244.3 1446.42 244.3Z" fill="white"/>
<path fill-rule="evenodd" clip-rule="evenodd" d="M47.2397 0H344.259C451.914 0 540 87.7471 540 195C540 302.248 451.914 390 344.259 390H47.2397C21.2556 390 0 368.82 0 342.934V47.0663C0 21.1803 21.2556 0 47.2397 0ZM117.666 99.0818H342.934C395.361 99.0818 438.255 141.813 438.255 194.041C438.255 246.263 395.35 288.995 342.934 288.995H252.854C250.167 288.995 247.753 289.678 245.614 291.289L184.949 337.009C181.167 339.86 176.289 340.104 172.034 337.958C167.778 335.812 165.087 331.779 165.081 327.026L165.076 317.037C165.076 303.779 152.4 288.926 137.448 288.915C131.001 288.91 124.554 288.905 118.107 288.905C102.081 288.905 89.8093 276.653 89.8093 260.994V127.172C89.8093 111.715 102.15 99.0818 117.666 99.0818Z" fill="#008CCC"/>
</svg>
